<?xml version="1.0" standalone="no"?>
<!DOCTYPE svg PUBLIC "-//W3C//DTD SVG 20010904//EN"
 "http://www.w3.org/TR/2001/REC-SVG-20010904/DTD/svg10.dtd">
<svg version="1.0" xmlns="http://www.w3.org/2000/svg"
 width="120.000000pt" height="140.000000pt" viewBox="0 0 120.000000 140.000000"
 preserveAspectRatio="xMidYMid meet">

<g transform="translate(0.000000,140.000000) scale(0.100000,-0.100000)"
fill="#000000" stroke="none">
<path d="M256 1144 c-14 -14 -16 -67 -16 -439 0 -383 2 -425 17 -440 15 -15
37 -17 187 -12 190 5 243 16 322 70 104 70 161 186 171 352 15 258 -105 433
-327 475 -29 6 -117 10 -196 10 -116 0 -145 -3 -158 -16z m342 -97 c142 -37
212 -150 212 -343 0 -168 -49 -267 -156 -320 -48 -23 -71 -28 -175 -32 l-119
-5 0 357 0 356 93 0 c51 0 116 -6 145 -13z"/>
<path d="M396 914 c-8 -20 -8 -428 0 -448 5 -13 23 -16 95 -16 121 0 178 14
227 56 48 40 72 103 72 183 0 119 -50 198 -143 226 -72 21 -243 21 -251 -1z
m224 -82 c46 -22 70 -72 70 -142 0 -104 -53 -160 -152 -160 l-48 0 0 160 0
160 48 0 c26 0 63 -8 82 -18z"/>
<path d="M510 690 l0 -102 60 4 c80 6 105 29 105 98 0 69 -25 92 -105 98 l-60
4 0 -102z m110 50 c41 -41 12 -120 -45 -120 -24 0 -25 2 -25 70 0 68 1 70 25
70 14 0 34 -9 45 -20z"/>
</g>
</svg>
